<svg width="24" height="24" viewBox="0 0 24 24" fill="none" xmlns="http://www.w3.org/2000/svg">
<path d="M5.53999 19.52C4.92999 19.52 4.35999 19.31 3.94999 18.92C3.42999 18.43 3.17999 17.69 3.26999 16.89L3.63999 13.65C3.70999 13.04 4.07999 12.23 4.50999 11.79L12.72 3.09999C14.77 0.929988 16.91 0.869988 19.08 2.91999C21.25 4.96999 21.31 7.10999 19.26 9.27999L11.05 17.97C10.63 18.42 9.84999 18.84 9.23999 18.94L6.01999 19.49C5.84999 19.5 5.69999 19.52 5.53999 19.52V19.52ZM15.93 2.90999C15.16 2.90999 14.49 3.38999 13.81 4.10999L5.59999 12.81C5.39999 13.02 5.16999 13.52 5.12999 13.81L4.75999 17.05C4.71999 17.38 4.79999 17.65 4.97999 17.82C5.15999 17.99 5.42999 18.05 5.75999 18L8.97999 17.45C9.26999 17.4 9.74999 17.14 9.94999 16.93L18.16 8.23999C19.4 6.91999 19.85 5.69999 18.04 3.99999C17.24 3.22999 16.55 2.90999 15.93 2.90999Z" fill="black"/>
<path d="M17.34 10.949H17.27C15.7545 10.8004 14.3315 10.1517 13.2253 9.10522C12.1191 8.05873 11.3925 6.67393 11.16 5.169C11.1 4.759 11.38 4.37899 11.79 4.30899C12.2 4.24899 12.58 4.529 12.65 4.939C12.8331 6.11564 13.402 7.1981 14.2672 8.01627C15.1324 8.83443 16.245 9.34193 17.43 9.45899C17.84 9.49899 18.14 9.869 18.1 10.279C18.05 10.659 17.72 10.949 17.34 10.949ZM21 22.75H3C2.59 22.75 2.25 22.41 2.25 22C2.25 21.59 2.59 21.25 3 21.25H21C21.41 21.25 21.75 21.59 21.75 22C21.75 22.41 21.41 22.75 21 22.75Z" fill="black"/>
</svg>
