<svg width="25" height="25" viewBox="0 0 24 24" fill="none" xmlns="http://www.w3.org/2000/svg">
<path d="M21.017 7.992C21.415 8.558 20.941 9.25 20.248 9.25H3C2.73478 9.25 2.48043 9.14464 2.29289 8.95711C2.10536 8.76957 2 8.51522 2 8.25V6.42C2 3.98 3.98 2 6.42 2H8.74C10.37 2 10.88 2.53 11.53 3.4L12.93 5.26C13.24 5.67 13.28 5.72 13.86 5.72H16.65C18.455 5.72 20.052 6.617 21.017 7.992V7.992ZM21.983 11.747C21.9822 11.4823 21.8765 11.2287 21.689 11.0418C21.5016 10.8549 21.2477 10.75 20.983 10.75H3C2.73478 10.75 2.48043 10.8554 2.29289 11.0429C2.10536 11.2304 2 11.4848 2 11.75V16.65C2 19.6 4.4 22 7.35 22H16.65C19.6 22 22 19.6 22 16.65L21.983 11.747ZM14.5 16.75H12.81V18.5C12.81 18.5985 12.7906 18.696 12.7529 18.787C12.7152 18.878 12.66 18.9607 12.5903 19.0303C12.5207 19.1 12.438 19.1552 12.347 19.1929C12.256 19.2306 12.1585 19.25 12.06 19.25C11.9615 19.25 11.864 19.2306 11.773 19.1929C11.682 19.1552 11.5993 19.1 11.5297 19.0303C11.46 18.9607 11.4048 18.878 11.3671 18.787C11.3294 18.696 11.31 18.5985 11.31 18.5V16.75H9.5C9.09 16.75 8.75 16.41 8.75 16C8.75 15.59 9.09 15.25 9.5 15.25H11.31V13.5C11.31 13.4015 11.3294 13.304 11.3671 13.213C11.4048 13.122 11.46 13.0393 11.5297 12.9697C11.5993 12.9 11.682 12.8448 11.773 12.8071C11.864 12.7694 11.9615 12.75 12.06 12.75C12.1585 12.75 12.256 12.7694 12.347 12.8071C12.438 12.8448 12.5207 12.9 12.5903 12.9697C12.66 13.0393 12.7152 13.122 12.7529 13.213C12.7906 13.304 12.81 13.4015 12.81 13.5V15.25H14.5C14.91 15.25 15.25 15.59 15.25 16C15.25 16.41 14.91 16.75 14.5 16.75Z" fill="orange"/>
</svg>
