<svg width="25" height="25" viewBox="0 0 24 24" fill="none" xmlns="http://www.w3.org/2000/svg">
<path d="M5.97 1H3.03C1.76 1 1 1.76 1 3.03V5.97C1 7.24 1.76 8 3.03 8H5.97C7.24 8 8 7.24 8 5.97V3.03C8 1.76 7.24 1 5.97 1ZM6.47 5.56C6.72 5.81 6.72 6.22 6.47 6.47C6.34718 6.58655 6.18432 6.65153 6.015 6.65153C5.84568 6.65153 5.68282 6.58655 5.56 6.47L4.49 5.41L3.45 6.47C3.32518 6.58655 3.16077 6.65138 2.99 6.65138C2.81923 6.65138 2.65482 6.58655 2.53 6.47C2.40994 6.349 2.34258 6.18545 2.34258 6.015C2.34258 5.84455 2.40994 5.681 2.53 5.56L3.6 4.5L2.54 3.45C2.41994 3.329 2.35258 3.16545 2.35258 2.995C2.35258 2.82455 2.41994 2.661 2.54 2.54C2.79 2.29 3.2 2.29 3.45 2.54L4.49 3.6L5.55 2.54C5.8 2.29 6.21 2.29 6.46 2.54C6.71 2.79 6.71 3.2 6.46 3.45L5.41 4.5L6.47 5.56V5.56ZM21.5 15.82C21.5 15.97 21.45 16.12 21.32 16.25L15.81 21.8C15.68 21.94 15.51 22 15.34 22C15.01 22 14.69 21.74 14.69 21.36V17.86C14.69 16.4 15.93 15.19 17.45 15.19C18.4 15.18 19.72 15.18 20.85 15.18C21.24 15.18 21.5 15.49 21.5 15.82V15.82Z" fill="red"/>
<path d="M21.4999 15.82C21.4999 15.97 21.4499 16.12 21.3199 16.25L15.8099 21.8C15.6799 21.94 15.5099 22 15.3399 22C15.0099 22 14.6899 21.74 14.6899 21.36V17.86C14.6899 16.4 15.9299 15.19 17.4499 15.19C18.3999 15.18 19.7199 15.18 20.8499 15.18C21.2399 15.18 21.4999 15.49 21.4999 15.82V15.82Z" fill="red"/>
<path d="M16.63 2H10.5C9.95 2 9.5 2.45 9.5 3V6.5C9.5 8.16 8.16 9.5 6.5 9.5H3.5C2.95 9.5 2.5 9.95 2.5 10.5V17.13C2.5 17.7695 2.62597 18.4028 2.87071 18.9937C3.11545 19.5845 3.47417 20.1214 3.92639 20.5736C4.83969 21.4869 6.0784 22 7.37 22H12.19C12.74 22 13.19 21.55 13.19 21V17.86C13.19 15.56 15.1 13.69 17.45 13.69C17.98 13.68 19.27 13.68 20.5 13.68C21.05 13.68 21.5 13.24 21.5 12.68V6.87C21.5 6.23046 21.374 5.59719 21.1293 5.00633C20.8846 4.41548 20.5258 3.87861 20.0736 3.42639C19.6214 2.97417 19.0845 2.61545 18.4937 2.37071C17.9028 2.12597 17.2695 2 16.63 2V2ZM8.72 17.01H6.08C5.87976 17.01 5.68772 16.9305 5.54613 16.7889C5.40454 16.6473 5.325 16.4552 5.325 16.255C5.325 16.0548 5.40454 15.8627 5.54613 15.7211C5.68772 15.5795 5.87976 15.5 6.08 15.5H8.72C9.15 15.5 9.47 15.84 9.47 16.26C9.47 16.67 9.15 17.01 8.72 17.01ZM11.51 13.3H6.08C5.87976 13.3 5.68772 13.2205 5.54613 13.0789C5.40454 12.9373 5.325 12.7452 5.325 12.545C5.325 12.3448 5.40454 12.1527 5.54613 12.0111C5.68772 11.8695 5.87976 11.79 6.08 11.79H11.51C11.92 11.79 12.27 12.13 12.27 12.55C12.27 12.96 11.92 13.3 11.51 13.3V13.3Z" fill="red"/>
</svg>
