<svg width="25" height="25" viewBox="0 0 24 24" fill="none" xmlns="http://www.w3.org/2000/svg">
<path d="M8.29004 6.29C7.87004 6.29 7.54004 5.95 7.54004 5.54V2.75C7.54004 2.55109 7.61906 2.36032 7.75971 2.21967C7.90036 2.07902 8.09113 2 8.29004 2C8.48895 2 8.67972 2.07902 8.82037 2.21967C8.96102 2.36032 9.04004 2.55109 9.04004 2.75V5.53C9.04004 5.95 8.71004 6.29 8.29004 6.29V6.29ZM15.71 6.29C15.29 6.29 14.96 5.95 14.96 5.54V2.75C14.96 2.55109 15.0391 2.36032 15.1797 2.21967C15.3204 2.07902 15.5111 2 15.71 2C15.909 2 16.0997 2.07902 16.2404 2.21967C16.381 2.36032 16.46 2.55109 16.46 2.75V5.53C16.46 5.95 16.13 6.29 15.71 6.29V6.29ZM21.5 15.82C21.5 15.97 21.45 16.12 21.32 16.25L15.81 21.8C15.68 21.94 15.51 22 15.34 22C15.01 22 14.69 21.74 14.69 21.36V17.86C14.69 16.4 15.93 15.19 17.45 15.19C18.4 15.18 19.72 15.18 20.85 15.18C21.24 15.18 21.5 15.49 21.5 15.82V15.82Z" fill="purple"/>
<path d="M21.4999 15.8201C21.4999 15.9701 21.4499 16.1201 21.3199 16.2501L15.8099 21.8001C15.6799 21.9401 15.5099 22.0001 15.3399 22.0001C15.0099 22.0001 14.6899 21.7401 14.6899 21.3601V17.8601C14.6899 16.4001 15.9299 15.1901 17.4499 15.1901C18.3999 15.1801 19.7199 15.1801 20.8499 15.1801C21.2399 15.1801 21.4999 15.4901 21.4999 15.8201V15.8201Z" fill="purple"/>
<path d="M19.57 4.5C18.91 4.01 17.96 4.48 17.96 5.31V5.41C17.96 6.58 17.12 7.66 15.95 7.78C14.6 7.92 13.46 6.86 13.46 5.54V4.5C13.46 3.95 13.01 3.5 12.46 3.5H11.54C10.99 3.5 10.54 3.95 10.54 4.5V5.41C10.54 6.29 10.07 7.11 9.34 7.51C9.3 7.54 9.26 7.56 9.22 7.58C9.21 7.58 9.21 7.59 9.2 7.59C9.13 7.62 9.06 7.65 8.98 7.68C8.96 7.69 8.94 7.69 8.92 7.7C8.8 7.74 8.67 7.77 8.53 7.78H8.52C8.37 7.8 8.21 7.8 8.06 7.78H8.05C7.91 7.77 7.78 7.74 7.66 7.7C7.56 7.67 7.46 7.63 7.36 7.58C6.96636 7.40391 6.63218 7.11752 6.39792 6.75547C6.16365 6.39342 6.03933 5.97123 6.04 5.54V5.31C6.04 4.54 5.22 4.08 4.57 4.41C4.56 4.42 4.55 4.42 4.54 4.43H4.53C4.46 4.48 4.4 4.53 4.33 4.58C4.14329 4.72853 3.96935 4.89244 3.81 5.07C3.73 5.15 3.66 5.23 3.59 5.32C3.54 5.38 3.48 5.44 3.44 5.51C3.39 5.57 3.35 5.64 3.31 5.7C3.20842 5.84624 3.11816 6.00002 3.04 6.16C3.02 6.18 3.01 6.19 3.01 6.21C2.95 6.33 2.89 6.45 2.85 6.58C2.82 6.63 2.81 6.67 2.79 6.72C2.77 6.76 2.76 6.81 2.74 6.85C2.71 6.95 2.68 7.06 2.65 7.17C2.61 7.31 2.58 7.46 2.56 7.61C2.52364 7.86178 2.5036 8.11564 2.5 8.37V17.13C2.5 17.7695 2.62597 18.4028 2.87071 18.9937C3.11545 19.5845 3.47417 20.1214 3.92639 20.5736C4.83969 21.4869 6.0784 22 7.37 22H12.19C12.74 22 13.19 21.55 13.19 21V17.86C13.19 15.56 15.1 13.69 17.45 13.69C17.98 13.68 19.27 13.68 20.5 13.68C21.05 13.68 21.5 13.23 21.5 12.68V8.37C21.5 6.78 20.74 5.39 19.57 4.5V4.5ZM11.13 15.91C11.04 16.21 10.76 16.42 10.43 16.42H6.79C6.74 16.42 6.7 16.42 6.66 16.4C6.48557 16.3745 6.32641 16.2863 6.2123 16.152C6.09818 16.0176 6.03693 15.8463 6.04 15.67C6.04 15.25 6.37 14.91 6.79 14.91H10.43C10.84 14.91 11.18 15.25 11.18 15.67C11.18 15.75 11.17 15.84 11.13 15.91V15.91ZM13.91 12.2C13.82 12.5 13.54 12.71 13.21 12.71H6.79C6.74 12.71 6.7 12.71 6.66 12.69C6.48557 12.6645 6.32641 12.5763 6.2123 12.442C6.09818 12.3076 6.03693 12.1363 6.04 11.96C6.04 11.54 6.37 11.2 6.79 11.2H13.21C13.63 11.2 13.96 11.54 13.96 11.96C13.96 12.04 13.95 12.13 13.91 12.2Z" fill="purple"/>
</svg>
