<svg width="20" height="20" viewBox="0 0 20 20" fill="none" xmlns="http://www.w3.org/2000/svg">
<path d="M17.5 4.98341C14.725 4.70841 11.9333 4.56675 9.15 4.56675C7.5 4.56675 5.85 4.65008 4.2 4.81675L2.5 4.98341M7.08333 4.14175L7.26667 3.05008C7.4 2.25841 7.5 1.66675 8.90833 1.66675H11.0917C12.5 1.66675 12.6083 2.29175 12.7333 3.05841L12.9167 4.14175M15.7083 7.61675L15.1667 16.0084C15.075 17.3167 15 18.3334 12.675 18.3334H7.325C5 18.3334 4.925 17.3167 4.83333 16.0084L4.29167 7.61675M8.60833 13.7501H11.3833M7.91667 10.4167H12.0833" stroke="red" stroke-width="1.5" stroke-linecap="round" stroke-linejoin="round"/>
</svg>
